<?xml version="1.0" encoding="utf-8"?>
<!-- Generator: Adobe Illustrator 21.0.2, SVG Export Plug-In . SVG Version: 6.00 Build 0)  -->
<svg version="1.1" id="Слой_1" xmlns="http://www.w3.org/2000/svg" xmlns:xlink="http://www.w3.org/1999/xlink" x="0px" y="0px"
	 viewBox="0 0 1500 500" style="enable-background:new 0 0 1500 500;" xml:space="preserve">
<style type="text/css">
	.st0{fill:#0375BB;}
	.st1{stroke:#0375BB;stroke-width:10;stroke-miterlimit:10;}
</style>
<g>
	<g>
		<path class="st0" d="M663.7,398.6c0-12.2,0-24.2,0-36.3c0-29,0-58.1,0-87.2c0-35,0-70,0-105c0-30.2,0-60.5,0-90.8c0-10,0-20,0-30
			c0-4.7,0.4-9.6,0-14.3c0-0.3,0-0.4,0-0.7c-2.7,2.7-5.3,5.3-8,8c9.2,0,18.4,0,27.5,0c23.9,0,47.7,0,71.4,0c33,0,66,0,98.9,0
			c36.5,0,73,0,109.6,0c34.5,0,68.9,0,103.4,0c27.1,0,54.3,0,81.5,0c13.9,0,27.9,0,41.8,0c11.3,0,22.7,0,34,0c34.2,0,68.4,0,102.5,0
			c26.3,0,52.7,0,79,0c1.3,0,2.8,0,4.1,0c-1.9-0.8-3.7-1.6-5.7-2.4c0.9,0.9,1.9,2,2.8,3.1c1.1,1.2,2,2.4,2.9,3.7
			c0.3,0.4,0.5,0.8,0.9,1.1c-2-2.5-0.5-0.8-0.1-0.1c0.7,1.1,1.5,2,2.3,3.1c8.7,11.9,16,24.7,22.4,37.8c2.3,4.5,4.4,9.2,6.5,14
			c0.5,1.2,1.1,2.4,1.6,3.6c0.1,0.3,0.9,2.4,0.3,0.5c0.3,0.7,0.5,1.3,0.8,1.9c1.1,2.8,2.3,5.6,3.3,8.5c4.7,12,8.7,24.3,12.2,36.7
			c8.8,31.2,14.4,63.2,17.4,95.5c4.5,49.7,3.2,99.7-1.9,149.3c2.7-2.7,5.3-5.3,8-8c-67.8,0.7-135.7,1.1-203.5,1.2
			c-71.8,0.3-143.7,0.3-215.6,0.1c-65.6-0.1-131.1-0.3-196.6-0.4c-48.7-0.1-97.6-0.4-146.3-0.7c-21.6-0.1-43.4-0.9-65-0.3
			c-0.3,0-0.5,0-0.9,0c-10.4-0.1-10.4,16,0,16.2c17.6,0.1,35.3,0.3,53,0.3c46.1,0.3,92,0.4,138.2,0.5c64.1,0.3,128.1,0.4,192.1,0.5
			c71.7,0.1,143.3,0.1,215-0.1c68.9-0.1,137.8-0.5,206.6-1.1c7.7-0.1,15.5-0.1,23.1-0.3c4.7-0.1,7.6-3.7,8-8
			c7.7-75,6.8-151.8-10-225.7c-9.5-41-23.9-81.6-46.2-117.5c-5.2-8.3-10.7-16.2-17-23.6c-0.9-1.1-1.9-2.3-2.9-3.2
			c-3.2-2.9-7.2-2.4-11.1-2.4c-41,0-82.1,0-123.1,0c-29.8,0-59.4,0-89.2,0c-18.4,0-36.9,0-55.3,0c-41.5,0-83.1,0-124.6,0
			c-49.8,0-99.6,0-149.4,0c-44.2,0-88.4,0-132.6,0c-23.8,0-47.5,0-71.3,0c-1.1,0-2.3,0-3.3,0c-4.4,0-8,3.7-8,8c0,12.2,0,24.2,0,36.3
			c0,29,0,58.1,0,87.2c0,35,0,70,0,105c0,30.2,0,60.5,0,90.8c0,14.7-0.5,29.6,0,44.5c0,0.3,0,0.4,0,0.7
			C647.6,409,663.7,409,663.7,398.6z"/>
	</g>
</g>
<g>
	<g>
		<path class="st0" d="M440.5,34.4c1.3,12.2,2.8,24.3,4.1,36.5c3.3,29.2,6.7,58.5,10,87.7c4,35.4,8,70.8,12.2,106.3
			c3.5,30.6,7.1,61.2,10.4,91.9c1.7,14.8,3.3,29.8,5.1,44.6c0,0.3,0.1,0.4,0.1,0.7c1.1,10.1,15.5,10.5,16.2,0
			c0.7-12.2,1.5-24.4,2.3-36.6c1.7-29.2,3.6-58.6,5.3-87.9c2.1-35.4,4.4-70.9,6.5-106.3c1.9-30.4,3.7-61,5.6-91.5
			c0.7-10,1.2-20.3,1.9-30.3c0.3-4.8,0.9-9.6,0.9-14.3c0-0.3,0-0.4,0-0.7c-5.3,0-10.7,0-16.2,0c0.8,12.2,1.6,24.4,2.4,36.6
			c1.9,29.2,3.9,58.6,5.7,87.9c2.4,35.4,4.7,70.9,7.1,106.3c2,30.4,4,61,6,91.5c0.9,15,1.7,29.8,2.9,44.6c0,0.3,0,0.4,0.1,0.7
			c0.7,10.4,15.5,10.4,16.2,0c0.8-12.2,1.6-24.4,2.4-36.6c1.9-29.2,3.9-58.6,5.7-87.9c2.4-35.4,4.7-70.9,7.1-106.3
			c2-30.4,4-61,6-91.5c0.7-10,1.3-20.3,2-30.3c0.3-4.8,1.1-9.6,0.9-14.3c0-0.3,0-0.4,0.1-0.7c-5.3,0-10.7,0-16.2,0
			c0.7,12.2,1.5,24.4,2.3,36.6c1.7,29.2,3.6,58.6,5.3,87.9c2.1,35.4,4.4,70.9,6.5,106.3c1.9,30.4,3.7,61,5.6,91.5
			c0.9,15,1.5,29.8,2.8,44.6c0,0.3,0,0.4,0,0.7c0.7,10.4,15.4,10.3,16.2,0c0.9-12.2,1.9-24.3,2.9-36.5c2.4-29.2,4.5-58.5,6.9-87.7
			c2.8-35.4,5.6-70.8,8.4-106c2.4-30.7,4.8-61.4,7.2-92.1c0.8-10,1.6-20.2,2.4-30.2c0.4-4.8,1.1-9.6,1.1-14.3c0-0.3,0-0.4,0.1-0.7
			c-5.3,0-10.7,0-16.2,0c0.5,11.9,1.2,23.9,1.7,35.7c1.5,28.8,2.8,57.4,4.3,86.3c1.7,34.7,3.3,69.3,5.1,104c1.5,30,2.9,60,4.4,89.9
			c0.7,14.6,1.1,29.2,2.1,43.8c0,0.1,0,0.4,0,0.5c0.5,10.4,15.4,10.3,16.2,0c0.8-11.9,1.7-23.9,2.5-35.9c2-28.7,4-57.4,6-86.1
			c2.4-34.6,4.8-69.3,7.2-103.8c2.1-30,4.1-60.1,6.3-90.1c0.9-14.6,2.8-29.2,3.1-43.8c0-0.1,0-0.4,0.1-0.5c0.3-4.4-4-8-8-8
			c-14.3,0-28.4,0-42.7,0c-29.6,0-59.3,0-88.9,0c-25.4,0-50.7,0-76.1,0c-6.8,0-13.6,0-20.4,0c-14.7,0-29.4,0-44.2,0
			c-25.4,0-50.7,0-76.1,0c-30.6,0-61.2,0-91.7,0c-30,0-60.1,0-90.1,0c-23.9,0-47.7,0-71.4,0c-12.2,0-24.3,0-36.6,0
			c-0.5,0-1.1,0-1.6,0c-4.4,0-8,3.7-8,8c0,12.2,0,24.2,0,36.3c0,29,0,58.1,0,87.2c0,35,0,70,0,105.1c0,30.4,0,60.8,0,91.1
			c0,14.7-0.5,29.5,0,44.2c0,0.3,0,0.4,0,0.7c0,4.4,3.7,8,8,8c14.3,0,28.7,0,43,0c34.5,0,68.9,0,103.2,0c41.4,0,82.7,0,124,0
			c35.9,0,71.8,0,107.9,0c17.4,0,35,0.5,52.3,0c0.3,0,0.5,0,0.7,0c10.4,0,10.4-16.2,0-16.2c-14.3,0-28.7,0-43,0
			c-34.5,0-68.9,0-103.2,0c-41.4,0-82.7,0-124,0c-35.9,0-71.8,0-107.9,0c-11.8,0-23.6,0-35.4,0c-5.6,0-11.3-0.4-17,0
			c-0.3,0-0.5,0-0.7,0c2.7,2.7,5.3,5.3,8,8c0-12.2,0-24.2,0-36.3c0-29,0-58.1,0-87.2c0-35,0-70,0-105.1c0-30.4,0-60.8,0-91.1
			c0-10,0-19.9,0-29.9c0-4.7,0.4-9.6,0-14.3c0-0.3,0-0.4,0-0.7c-2.7,2.7-5.3,5.3-8,8c8.4,0,17,0,25.4,0c21.6,0,43.3,0,64.8,0
			c29,0,58,0,86.9,0c31,0,62,0,92.9,0c27.2,0,54.3,0,81.6,0c17.8,0,35.5,0,53.4,0c5.7,0,11.5,0,17.2,0c21.5,0,43,0,64.5,0
			c30.3,0,60.6,0,90.9,0c19.8,0,39.7,0,59.4,0c0.9,0,2,0,2.9,0c-2.7-2.7-5.3-5.3-8-8c-0.8,11.9-1.7,23.9-2.5,35.9
			c-2,28.7-4,57.4-6,86.1c-2.4,34.6-4.8,69.3-7.2,103.8c-2.1,30-4.1,60.1-6.3,90.1c-0.7,9.9-1.3,19.8-2,29.6
			c-0.3,4.7-1.1,9.5-0.9,14.2c0,0.1,0,0.4-0.1,0.5c5.3,0,10.7,0,16.2,0c-0.5-11.9-1.2-23.9-1.7-35.7c-1.5-28.8-2.8-57.4-4.3-86.3
			c-1.7-34.7-3.3-69.3-5.1-104c-1.5-30-2.9-60-4.4-89.9c-0.7-14.6-1.1-29.2-2.1-43.8c0-0.1,0-0.4,0-0.5c-0.5-10.4-15.4-10.3-16.2,0
			c-0.9,12.2-1.9,24.3-2.9,36.5c-2.4,29.2-4.5,58.5-6.9,87.7c-2.8,35.4-5.6,70.8-8.4,106c-2.4,30.7-4.8,61.4-7.2,92.1
			c-0.8,10-1.6,20.2-2.4,30.2c-0.4,4.8-1.1,9.6-1.1,14.3c0,0.3,0,0.4-0.1,0.7c5.3,0,10.7,0,16.2,0c-0.7-12.2-1.5-24.4-2.3-36.6
			c-1.7-29.2-3.6-58.6-5.3-87.9c-2.1-35.4-4.4-70.9-6.5-106.3c-1.9-30.4-3.7-61-5.6-91.5c-0.9-15-1.5-29.8-2.8-44.6
			c0-0.3,0-0.4,0-0.7c-0.7-10.4-15.5-10.4-16.2,0c-0.8,12.2-1.6,24.4-2.4,36.6c-1.9,29.2-3.9,58.6-5.7,87.9
			c-2.4,35.4-4.7,70.9-7.1,106.3c-2,30.4-4,61-6,91.5c-0.7,10-1.3,20.3-2,30.3c-0.3,4.8-1.1,9.6-0.9,14.3c0,0.3,0,0.4-0.1,0.7
			c5.3,0,10.7,0,16.2,0c-0.8-12.2-1.6-24.4-2.4-36.6c-1.9-29.2-3.9-58.6-5.7-87.9c-2.4-35.4-4.7-70.9-7.1-106.3c-2-30.4-4-61-6-91.5
			c-0.9-15-1.7-29.8-2.9-44.6c0-0.3,0-0.4-0.1-0.7c-0.7-10.3-15.5-10.4-16.2,0c-0.7,12.2-1.5,24.4-2.3,36.6
			c-1.7,29.2-3.6,58.6-5.3,87.9c-2.1,35.4-4.4,70.9-6.5,106.3c-1.9,30.4-3.7,61-5.6,91.5c-0.7,10-1.2,20.3-1.9,30.3
			c-0.3,4.8-0.9,9.6-0.9,14.3c0,0.3,0,0.4,0,0.7c5.3,0,10.7,0,16.2,0c-1.3-12.2-2.8-24.3-4.1-36.5c-3.3-29.2-6.7-58.5-10-87.7
			c-4-35.4-8-70.8-12.2-106.3c-3.5-30.6-7.1-61.2-10.4-91.9c-1.7-14.8-3.3-29.8-5.1-44.6c0-0.3-0.1-0.4-0.1-0.7c-0.5-4.4-3.3-8-8-8
			C444.5,26.2,439.9,29.9,440.5,34.4L440.5,34.4z"/>
	</g>
</g>
<g>
	<g>
		<path class="st0" d="M432.3,406.6c27.8,0,55.5,0.1,83.3,0.1c43.8,0,87.7,0.1,131.7,0.1c10,0,20,0,30,0c10.4,0,10.4-16.2,0-16.2
			c-27.8,0-55.5-0.1-83.3-0.1c-43.8,0-87.7-0.1-131.7-0.1c-10,0-20,0-30,0C421.9,390.6,421.9,406.6,432.3,406.6L432.3,406.6z"/>
	</g>
</g>
<g>
	<g>
		<path class="st0" d="M413,230.5c-13.2,0-26.3,0-39.5,0c-31.6,0-63.3,0-94.9,0c-38.3,0-76.5,0-114.8,0c-33,0-66.2,0-99.2,0
			c-10.8,0-21.8,0-32.6,0c-5.1,0-10.4-0.5-15.5,0c-0.3,0-0.5,0-0.7,0c2,2,4,4,6,6c0-17.4,0-34.7,0-52.1c0-27.6,0-55.3,0-82.9
			c0-6.4,0-12.7,0-19c-2,2-4,4-6,6c13.2,0,26.3,0,39.5,0c31.6,0,63.3,0,94.9,0c38.3,0,76.5,0,114.8,0c33,0,66.2,0,99.2,0
			c10.8,0,21.8,0,32.6,0c5.1,0,10.4,0.5,15.5,0c0.3,0,0.5,0,0.7,0c-2-2-4-4-6-6c0,17.4,0,34.7,0,52.1c0,27.6,0,55.3,0,82.9
			c0,6.4,0,12.7,0,19c0,7.9,12.2,7.9,12.2,0c0-17.4,0-34.7,0-52.1c0-27.6,0-55.3,0-82.9c0-6.4,0-12.7,0-19c0-3.3-2.8-6-6-6
			c-13.2,0-26.3,0-39.5,0c-31.6,0-63.3,0-94.9,0c-38.3,0-76.5,0-114.8,0c-33,0-66.2,0-99.2,0c-16,0-32-0.7-48.1,0
			c-0.3,0-0.5,0-0.7,0c-3.3,0-6,2.8-6,6c0,17.4,0,34.7,0,52.1c0,27.6,0,55.3,0,82.9c0,6.4,0,12.7,0,19c0,3.3,2.8,6,6,6
			c13.2,0,26.3,0,39.5,0c31.6,0,63.3,0,94.9,0c38.3,0,76.5,0,114.8,0c33,0,66.2,0,99.2,0c16,0,32,0.7,48.1,0c0.3,0,0.5,0,0.7,0
			C420.8,242.7,420.8,230.5,413,230.5z"/>
	</g>
</g>
<g>
	<g>
		<path class="st0" d="M1225.9,236.1c0-17.2,0-34.5,0-51.8c0-27.5,0-55,0-82.5c0-6.4,0-12.7,0-19c-2,2-4,4-6,6c23.9,0,47.7,0,71.6,0
			c20.3,0,40.3,0,60.6,0c14.3,0,28.7,0,43,0c-1.7-0.9-3.5-2-5.2-2.9c0.3,0.4,0.5,0.8,0.7,1.3c0.1,0.5,0.4,0.9,0.7,1.5
			c0.3,0.5,0.7,1.9-0.1-0.3c0.1,0.5,0.4,0.9,0.5,1.5c2,5.2,3.7,10.4,5.2,15.8c6,22,8.7,44.9,9.9,67.6c1.1,21,0.7,42.1-0.4,62.9
			c2-2,4-4,6-6c-58.9,1.1-117.9,0.7-176.9,0.1c-5.2-0.1-10.3-0.1-15.5-0.1c-7.9-0.1-7.9,12,0,12.2c46.2,0.5,92.4,0.7,138.6,0.5
			c17.9-0.1,35.9-0.3,53.8-0.5c3.3-0.1,5.9-2.8,6-6c1.9-33.8,1.5-67.8-3.2-101.3c-2.3-15.9-5.5-32-11.3-47.1
			c-1.1-2.7-2.1-5.3-3.5-7.9c-0.9-1.9-3.2-2.9-5.2-2.9c-19.1,0-38.2,0-57.3,0c-29.8,0-59.7,0-89.6,0c-9.5,0-19,0-28.3,0
			c-3.3,0-6,2.8-6,6c0,17.2,0,34.5,0,51.8c0,27.5,0,55,0,82.5c0,6.4,0,12.7,0,19C1213.9,243.7,1225.9,243.7,1225.9,236.1z"/>
	</g>
</g>
<g>
	<g>
		<path class="st0" d="M1184.3,230.5c-16.6,0-33,0-49.5,0c-39.5,0-79.2,0-118.7,0c-47.7,0-95.5,0-143,0c-41.1,0-82.4,0-123.6,0
			c-13.5,0-27.1,0-40.7,0c-6.4,0-13-0.5-19.2,0c-0.3,0-0.5,0-0.8,0c2,2,4,4,6,6c0-17.4,0-34.7,0-52.1c0-27.6,0-55.3,0-82.9
			c0-6.4,0-12.7,0-19c-2,2-4,4-6,6c16.6,0,33,0,49.5,0c39.5,0,79.2,0,118.7,0c47.7,0,95.5,0,143,0c41.1,0,82.4,0,123.6,0
			c13.5,0,27.1,0,40.7,0c6.4,0,13,0.5,19.2,0c0.3,0,0.5,0,0.8,0c-2-2-4-4-6-6c0,17.4,0,34.7,0,52.1c0,27.6,0,55.3,0,82.9
			c0,6.4,0,12.7,0,19c0,7.9,12.2,7.9,12.2,0c0-17.4,0-34.7,0-52.1c0-27.6,0-55.3,0-82.9c0-6.4,0-12.7,0-19c0-3.3-2.8-6-6-6
			c-16.6,0-33,0-49.5,0c-39.5,0-79.2,0-118.7,0c-47.7,0-95.5,0-143,0c-41.1,0-82.4,0-123.6,0c-20,0-40.1-0.7-60,0
			c-0.3,0-0.5,0-0.8,0c-3.3,0-6,2.8-6,6c0,17.4,0,34.7,0,52.1c0,27.6,0,55.3,0,82.9c0,6.4,0,12.7,0,19c0,3.3,2.8,6,6,6
			c16.6,0,33,0,49.5,0c39.5,0,79.2,0,118.7,0c47.7,0,95.5,0,143,0c41.1,0,82.4,0,123.6,0c20,0,40.1,0.7,60,0c0.3,0,0.5,0,0.8,0
			C1192.2,242.7,1192.2,230.5,1184.3,230.5z"/>
	</g>
</g>
<g>
	<g>
		<path class="st0" d="M826.1,236.6c0-17.4,0-34.7,0-52.1c0-27.6,0-55.3,0-82.9c0-6.4,0-12.7,0-19c0-7.9-12.2-7.9-12.2,0
			c0,17.4,0,34.7,0,52.1c0,27.6,0,55.3,0,82.9c0,6.4,0,12.7,0,19C813.9,244.4,826.1,244.4,826.1,236.6L826.1,236.6z"/>
	</g>
</g>
<g>
	<g>
		<path class="st0" d="M957.5,236.6c0-17.2,0-34.5,0-51.5c0-27.2,0-54.6,0-81.9c0-6.3,0-12.6,0-18.8c0-7.9-12.2-7.9-12.2,0
			c0,17.2,0,34.5,0,51.5c0,27.2,0,54.6,0,81.9c0,6.3,0,12.6,0,18.8C945.3,244.4,957.5,244.4,957.5,236.6L957.5,236.6z"/>
	</g>
</g>
<g>
	<g>
		<path class="st0" d="M1075.9,236.6c0-17.2,0-34.5,0-51.5c0-27.2,0-54.6,0-81.9c0-6.3,0-12.6,0-18.8c0-7.9-12.2-7.9-12.2,0
			c0,17.2,0,34.5,0,51.5c0,27.2,0,54.6,0,81.9c0,6.3,0,12.6,0,18.8C1063.9,244.4,1075.9,244.4,1075.9,236.6L1075.9,236.6z"/>
	</g>
</g>
<g>
	<g>
		<path class="st0" d="M303.7,235.8c0-17.1,0-34,0-51.1c0-27.1,0-54.3,0-81.6c0-6.3,0-12.6,0-18.8c0-7.9-12.2-7.9-12.2,0
			c0,17.1,0,34,0,51.1c0,27.1,0,54.3,0,81.6c0,6.3,0,12.6,0,18.8C291.7,243.6,303.7,243.6,303.7,235.8L303.7,235.8z"/>
	</g>
</g>
<g>
	<g>
		<path class="st0" d="M171.5,235.8c0-17.1,0-34,0-51.1c0-27.1,0-54.3,0-81.6c0-6.3,0-12.6,0-18.8c0-7.9-12.2-7.9-12.2,0
			c0,17.1,0,34,0,51.1c0,27.1,0,54.3,0,81.6c0,6.3,0,12.6,0,18.8C159.5,243.6,171.5,243.6,171.5,235.8L171.5,235.8z"/>
	</g>
</g>
<g>
	<g>
		<path class="st0" d="M433.7,34.4c0,12.2,0,24.2,0,36.3c0,29,0,58.1,0,87.2c0,35,0,70,0,105.1c0,30.4,0,60.8,0,91.1
			c0,14.7-0.5,29.5,0,44.2c0,0.3,0,0.4,0,0.7c0,10.4,16.2,10.4,16.2,0c0-12.2,0-24.2,0-36.3c0-29,0-58.1,0-87.2c0-35,0-70,0-105.1
			c0-30.4,0-60.8,0-91.1c0-14.7,0.5-29.5,0-44.2c0-0.3,0-0.4,0-0.7C449.8,23.9,433.7,23.9,433.7,34.4L433.7,34.4z"/>
	</g>
</g>
<g>
	<g>
		<path class="st0" d="M882.6,270c0,12.7,0,25.2,0,37.9c0,2.1,1.9,4,4,4c20.7,0,41.1,0,61.8,0c32.8,0,65.7,0,98.5,0
			c7.6,0,15.1,0,22.7,0c2.1,0,4-1.9,4-4c0-12.7,0-25.2,0-37.9c0-2.1-1.9-4-4-4c-20.7,0-41.1,0-61.8,0c-32.8,0-65.7,0-98.5,0
			c-7.6,0-15.1,0-22.7,0c-5.2,0-5.2,8,0,8c20.7,0,41.1,0,61.8,0c32.8,0,65.7,0,98.5,0c7.6,0,15.1,0,22.7,0c-1.3-1.3-2.7-2.7-4-4
			c0,12.7,0,25.2,0,37.9c1.3-1.3,2.7-2.7,4-4c-20.7,0-41.1,0-61.8,0c-32.8,0-65.7,0-98.5,0c-7.6,0-15.1,0-22.7,0
			c1.3,1.3,2.7,2.7,4,4c0-12.7,0-25.2,0-37.9C890.6,265,882.6,265,882.6,270z"/>
	</g>
</g>
<rect x="449.3" y="406.6" width="164.4" height="48.3"/>
<circle class="st1" cx="1320.9" cy="409.3" r="73.3"/>
<circle class="st1" cx="779.4" cy="412.4" r="73.3"/>
<circle class="st1" cx="260.2" cy="412.4" r="73.3"/>
</svg>
