<?xml version="1.0" encoding="utf-8"?>
<!-- Generator: Adobe Illustrator 21.0.2, SVG Export Plug-In . SVG Version: 6.00 Build 0)  -->
<svg version="1.1" id="Слой_1" xmlns="http://www.w3.org/2000/svg" xmlns:xlink="http://www.w3.org/1999/xlink" x="0px" y="0px"
	 viewBox="0 0 1920 1080" style="enable-background:new 0 0 1920 1080;" xml:space="preserve">
<style type="text/css">
	.st0{fill:#0375BB;stroke:#4C74B4;stroke-miterlimit:10;}
	.st1{fill:none;stroke:#0375BB;stroke-width:25;stroke-miterlimit:10;}
	.st2{stroke:#000000;stroke-miterlimit:10;}
</style>
<g>
	<g>
		<path class="st0" d="M1332.3,900.5c-23.6,0-47.2,0-70.8,0c-56.2,0-112.4,0-168.6,0c-68.4,0-136.7,0-205,0c-58.7,0-117.4,0-176.2,0
			c-28.7,0-57.6-0.9-86.2,0c-0.4,0-0.8,0-1.1,0c-16.4,0-16.4,25.4,0,25.4c23.6,0,47.2,0,70.8,0c56.2,0,112.4,0,168.6,0
			c68.4,0,136.7,0,205,0c58.7,0,117.4,0,176.2,0c28.7,0,57.6,0.9,86.2,0c0.4,0,0.8,0,1.1,0C1348.7,925.8,1348.7,900.5,1332.3,900.5
			L1332.3,900.5z"/>
	</g>
</g>
<g>
	<g>
		<path class="st0" d="M253.9,900.5c-64.4,0-128.9,0-193.3,0c-9,0-18,0-27.1,0c4.2,4.2,8.5,8.5,12.7,12.7c0-28.9,0-58,0-86.9
			c0-69.3,0-138.5,0-207.8c0-84,0-168.1,0-252c0-72.3,0-144.7,0-217c0-23.8,0-47.7,0-71.5c0-11,1.3-23,0-34c0-0.5,0-1,0-1.5
			c-4.2,4.2-8.5,8.5-12.7,12.7c20.5,0,41.2,0,61.8,0c53.1,0,106.4,0,159.6,0c73.4,0,146.9,0,220.4,0c81.7,0,163.5,0,245.2,0
			c77,0,154,0,231,0c60.2,0,120.5,0,180.7,0c31.2,0,62.5,0,93.7,0c25.5,0,51,0,76.4,0c76.2,0,152.5,0,228.7,0c58.7,0,117.3,0,176,0
			c3.2,0,6.3,0,9.5,0c-3-1.3-6-2.5-9-3.7c2.7,2.9,5.1,6,7.5,9c1.5,1.9-2-2.7,0.1,0.1c0.8,0.9,1.4,1.9,2.2,2.8
			c1.6,2.2,3.2,4.3,4.8,6.6c3.9,5.5,7.6,10.9,11.3,16.6c23.5,36.3,42.9,75.2,59.2,115.2c27,66.3,46.3,135.8,59.9,206.1
			c19.2,99.4,27,200.9,26.6,302.1c-0.3,66.2-5.3,132.5-10,198.5c-0.1,1.5-0.3,3.2-0.4,4.7c4.2-4.2,8.5-8.5,12.7-12.7
			c-55.8,0-111.6,0-167.4,0c-7.9,0-15.7,0-23.6,0c-16.4,0-16.4,25.4,0,25.4c55.8,0,111.6,0,167.4,0c7.9,0,15.7,0,23.6,0
			c7.2,0,12.2-5.8,12.7-12.7c3.9-53.5,7.4-107.2,9.4-161c3.3-87.4-1-175.5-12.3-262.3c-16.2-125.2-47.2-250.8-105.4-363.4
			c-13.6-26.3-28.7-52-46.3-75.7c-4.1-5.3-8-11-12.7-16c-4.2-4.4-9.3-5.1-15-5.1c-86.1,0-172.1,0-258.2,0c-74.1,0-148.1,0-222.2,0
			c-37.9,0-75.7,0-113.6,0c-92.2,0-184.4,0-276.5,0c-112.4,0-224.6,0-337,0c-100.3,0-200.7,0-301,0c-54,0-108.1,0-162.2,0
			c-2.5,0-5.1,0-7.5,0c-6.8,0-12.7,5.8-12.7,12.7c0,28.9,0,58,0,86.9c0,69.3,0,138.5,0,207.8c0,84,0,168.1,0,252
			c0,72.3,0,144.7,0,217c0,35.1-1.4,70.5,0,105.5c0,0.5,0,1,0,1.5c0,6.8,5.8,12.7,12.7,12.7c64.4,0,128.9,0,193.3,0c9,0,18,0,27.1,0
			C270.3,925.8,270.3,900.5,253.9,900.5L253.9,900.5z"/>
	</g>
</g>
<g>
	<g>
		<path class="st0" d="M99.5,381.1c13.3,0,26.6,0,40,0c36.3,0,72.5,0,108.8,0c53.3,0,106.7,0,159.9,0c65.2,0,130.3,0,195.5,0
			c70.9,0,141.8,0,212.7,0c71.5,0,143.2,0,214.7,0c66.3,0,132.7,0,199,0c29.4,0,58.9,0,88.4,0c13.3,0,26.6,0,39.8,0
			c11.9,0,24.1,0.8,35.9,0c16-1,21.6-16.9,23-30.4c2-18.9-2-38.7-6.8-56.9c-13.7-51.1-41-101.1-79.4-137.6
			c-20.8-19.8-45.5-35.5-73.1-44.1c-20.3-6.3-41-7.4-62-7.4c-34.1,0-68.2,0-102.2,0c-51.6,0-103.1,0-154.7,0
			c-61.9,0-123.8,0-185.7,0c-64.2,0-128.4,0-192.7,0c-59.5,0-119,0-178.3,0c-46.9,0-93.7,0-140.7,0c-16.4,0-32.7,0-49.1,0
			c-11.3,0-22.7-0.6-33.9,0.1c-51,3.4-68.6,56.8-74.5,99.8c-6.3,46.8-3.6,94.9,2.3,141.7c1.1,9.3,2.4,18.6,4.1,27.8
			c2.2,12,20.4,7,18.4-5.1c-0.4-2.4-0.8-4.8-1.1-7.2c-0.4-2.9-0.9-5.7-1.3-8.6c-0.1-0.9-0.3-1.6-0.4-2.5c-0.3-1.6,0.3,1.9-0.1-0.9
			c-0.3-1.9-0.5-3.9-0.8-5.8c-2.7-21.3-4.4-42.7-5.2-64.2c-0.9-24.7-0.5-51.1,3-74.8c3.3-22.2,8.5-43.8,21.2-61.5
			c1.5-2.2,5.2-6.2,8.5-9.1c2.2-1.9,1.4-1.4,4.2-3.2c2-1.4,4.2-2.5,6.3-3.6c1.9-0.9-0.4,0,1.8-0.8c1.1-0.4,2.2-0.8,3.3-1.1
			c2.4-0.8,4.9-1.3,7.5-1.6c-1.8,0.3,1.8-0.1,2.2-0.3c1.1-0.1,2.3-0.1,3.4-0.1c1.4,0,2.7,0,4.1,0c11.3,0,22.6,0,34,0
			c38.7,0,77.4,0,116.1,0c54,0,108.1,0,162.1,0c62.1,0,124.3,0,186.6,0c63,0,126.1,0,189.2,0c56.7,0,113.4,0,170.1,0
			c43.1,0,86.2,0,129.2,0c32.7,0,67.9-3.3,99.4,6.5c51.9,16,90.2,59.7,114.9,106.2c11.4,21.4,20.3,43.6,26.1,67.3
			c2.5,10,4.2,19.3,4.8,27.8c0.4,4.1,0.5,8.1,0.5,12.2c0,1.8-0.1,3.7-0.3,5.5c-0.1,0.9-0.1,1.6-0.3,2.5c0.3-2.3,0-0.4-0.1,0.8
			c-0.3,1.4-0.6,2.9-1,4.3c-0.1,0.6-0.4,1.1-0.5,1.6c-0.6,2.3,0.1,0-0.1,0.4c-0.5,0.9-1.1,1.9-1.6,2.8c-0.9,1.6,1.5-1.6,0.3-0.4
			c-0.4,0.4-0.8,0.9-1.3,1.1c1-0.8,1.8-1.1,0.4-0.4c-1.9,1,0.6-0.1,0.6-0.1c0,0.9-4.9,0.1-0.8,0.4c-5.7-0.3-11.4,0-17.1,0
			c-26.5,0-53.1,0-79.7,0c-61.9,0-123.8,0-185.7,0c-69.1,0-138.2,0-207.4,0c-70.9,0-141.8,0-212.8,0c-67.1,0-134.2,0-201.3,0
			c-58.5,0-116.9,0-175.4,0c-44.1,0-88.3,0-132.4,0c-24.5,0-48.8,0-73.3,0c-3.2,0-6.3,0-9.5,0C87.2,362.1,87.2,381.1,99.5,381.1z"/>
	</g>
</g>
<g>
	<g>
		<path class="st0" d="M1401.2,120.8c36.1,29,64.9,66.3,79.4,110.7c10.3,31.7,13.2,65.2,10,98.2c-0.6,7-1,9.8-2.2,16.5
			c-0.8,4.7-1.8,9.5-2.9,14.2c-1.1,4.8-2.8,9.4-3.9,14.2c-0.9,3.8,0.4,7,1.5,10.5c2,6.6,4.1,13.1,6.2,19.5
			c18,55.8,38.7,110.9,62.9,164.2c14,30.7,29.3,60.9,47.4,89.4c15.3,24,32.8,47.7,55.9,64.9c8.9,6.6,18.9,12.2,29.7,14.7
			c8.6,2.2,17.8,2.2,26.6,2.7c11.4,0.8,22.7,1.5,34.1,2.4c17.8,1.4,35.5,3.6,53.3,4.1c6.2,0.1,12.6,0.3,18.8,0.4
			c5.3,0.1,9.1-4.4,9.5-9.5c3.7-56.8-1.8-114.2-9.3-170.5c-8.8-66-21.3-131.4-37.7-195.8c-14.2-56.3-30.9-112.6-54.4-165.9
			c-8.2-18.8-17.5-37.4-29.6-54.2c-8.6-11.9-19.2-24.4-33.5-29.4c-11-3.9-24.5-2.8-36-3.6c-18.5-1.3-37.2-2.4-55.7-3.7
			c-42-2.8-84-5.5-125.8-8.2c-12.6-0.8-25.1-1.6-37.5-2.4c-12.2-0.8-12.2,18.3,0,19c81,5.3,162.1,10.5,243,15.9
			c1.1,0.1,2.4,0.1,3.6,0.3c-3.3-0.3-1-0.3-0.3,0c1.1,0.4,2.3,0.6,3.4,1c1.5,0.4,1,0.5-0.3-0.1c0.6,0.3,1.3,0.5,1.9,0.9
			c1.3,0.8,2.5,1.4,3.7,2.3c0.5,0.4,1.1,0.8,1.6,1.1c1.8,1.3-1.1-0.9,0.1,0.1c1.3,1.1,2.5,2.2,3.8,3.3c2.5,2.4,4.9,4.9,7.1,7.6
			c0.6,0.8,1.3,1.5,1.9,2.3c1,1.3-0.8-1,0.6,0.9c1.3,1.8,2.5,3.6,3.8,5.3c2.5,3.7,4.9,7.4,7.2,11.2c5.3,8.9,10.1,18.1,14.6,27.5
			c23.3,49.1,39.3,102.1,53.3,154.7c16.7,62.9,29.8,126.8,39.2,191.3c8.4,56.7,14.3,114.3,12.7,171.6c-0.1,5.8-0.4,11.5-0.8,17.4
			c3.2-3.2,6.3-6.3,9.5-9.5c-29-0.5-57.7-3.4-86.6-5.5c-9.1-0.6-18.3-1.3-27.5-1.9c-3.3-0.3-6.6-0.4-9.9-0.8c-0.5,0,1.5,0.3-0.4-0.1
			c-0.9-0.1-1.6-0.4-2.5-0.5c-1.6-0.4-3.2-0.8-4.7-1.3c-0.9-0.3-1.6-0.6-2.5-0.9c-0.4-0.1-2.7-1-1.8-0.6c1,0.4-1-0.5-1.4-0.6
			c-0.9-0.4-1.6-0.8-2.5-1.3c-1.8-0.9-3.4-1.9-5.1-2.9c-13.4-8.2-25.4-20.8-36.1-34.1c-27.3-33.9-48.2-75.2-66.6-115
			c-18.3-39.7-34.1-80.4-48.6-121.6c-5.2-14.6-10.1-29.3-14.8-44c-2.3-7-3.8-14.7-6.7-21.4c-0.1-0.3-0.3-0.6-0.3-1
			c0,1.6,0,3.4,0,5.1c6.8-19.7,9.5-41.3,10.7-62c2.4-45.5-7-91.6-28.7-131.8c-16.5-30.7-40-57.2-67.1-78.9c-4.1-3.3-9.5-3.9-13.4,0
			C1397.9,110.7,1397.2,117.7,1401.2,120.8z"/>
	</g>
</g>
<g>
	<g>
		<path class="st0" d="M1700.9,906.8c-29.3-48.1-58.7-96-88-144.1c-4.3-7.1-7.6-13.6-17.2-13.8c-9.1-0.3-18.3,0-27.4,0
			c-35.5,0-71,0-106.5,0c-25.6,0-51.2,0-76.9,0c-5.8,0-10.4,3.9-12.2,9.3c-15.3,44.3-30.7,88.4-46,132.7c-2.2,6.3-4.4,12.7-6.6,18.9
			c-2.3,6.5,2.5,13.8,8.9,15.6c7,1.9,13.3-2.4,15.6-8.9c15.3-44.3,30.7-88.4,46-132.7c2.2-6.3,4.4-12.7,6.6-18.9
			c-4.1,3-8.1,6.2-12.2,9.3c62.1,0,124.3,0,186.4,0c8.6,0,17.2,0,25.9,0c-3.7-2.2-7.4-4.2-10.9-6.3c27,44.3,54,88.5,81.2,132.8
			c3.8,6.3,7.7,12.6,11.5,18.9C1687.6,933.5,1709.5,920.8,1700.9,906.8L1700.9,906.8z"/>
	</g>
</g>
<g>
	<g>
		<path class="st0" d="M267.6,917.2c11.8-36.3,23.5-72.4,35.3-108.7c1.8-5.6,3.7-11.3,5.5-16.9c5.1-15.6-19.4-22.2-24.5-6.7
			c-11.7,36.1-23.5,72.2-35.1,108.3c-1.9,5.7-3.7,11.5-5.6,17.2C238.2,926,262.7,932.7,267.6,917.2L267.6,917.2z"/>
	</g>
</g>
<g>
	<g>
		<path class="st0" d="M555.3,833.5c18.6,28.7,37.2,57.5,55.7,86.1c8.9,13.7,30.8,1,21.9-12.8c-18.5-28.7-37.2-57.5-55.7-86.1
			C568.4,807,546.4,819.7,555.3,833.5L555.3,833.5z"/>
	</g>
</g>
<g>
	<g>
		<path class="st0" d="M292.6,800.4c30.2,4.3,60.4,8.5,90.6,12.8c47.9,6.7,95.9,13.4,143.8,20.3c11,1.5,22.2,3.2,33.2,4.7
			c6.7,1,13.6-1.6,15.6-8.9c1.6-6-2-14.6-8.9-15.6c-30.2-4.3-60.4-8.5-90.6-12.8c-47.9-6.7-95.9-13.4-143.8-20.3
			c-11-1.5-22.2-3.2-33.2-4.7c-6.7-1-13.6,1.6-15.6,8.9C282.2,790.8,285.9,799.5,292.6,800.4L292.6,800.4z"/>
	</g>
</g>
<g>
	<g>
		<path class="st0" d="M1155.7,116c-5.8,27.5-11.7,55.2-17.6,82.7c-9.4,43.9-18.6,87.9-28,131.8c-2.2,10-4.3,20.2-6.5,30.2
			c-2.5,11.9,15.9,17,18.4,5.1c5.8-27.5,11.7-55.2,17.6-82.7c9.4-43.9,18.6-87.9,28-131.8c2.2-10,4.3-20.2,6.5-30.2
			C1176.5,109.2,1158.3,104.1,1155.7,116L1155.7,116z"/>
	</g>
</g>
<g>
	<g>
		<path class="st0" d="M842.5,112.2c-6.2,28.9-12.4,57.8-18.6,86.9c-9.8,45.9-19.7,91.8-29.4,137.7c-2.3,10.7-4.6,21.2-6.8,31.8
			c-2.5,11.9,15.7,17,18.4,5.1c6.2-28.9,12.4-57.8,18.6-86.9c9.8-45.9,19.7-91.8,29.4-137.7c2.3-10.7,4.6-21.2,6.8-31.8
			C863.3,105.4,845,100.3,842.5,112.2L842.5,112.2z"/>
	</g>
</g>
<g>
	<g>
		<path class="st0" d="M558.4,116c-5.8,28.7-11.8,57.3-17.6,86c-9.3,45.4-18.6,90.8-27.9,136.3c-2.2,10.5-4.3,20.9-6.5,31.5
			c-2.4,11.9,15.9,17.1,18.4,5.1c5.8-28.7,11.8-57.3,17.6-86c9.3-45.4,18.6-90.8,27.9-136.3c2.2-10.5,4.3-20.9,6.5-31.5
			C579.2,109.2,560.8,104,558.4,116L558.4,116z"/>
	</g>
</g>
<g>
	<g>
		<path class="st0" d="M273,116c-6,28-12,56.1-18,84.1c-9.5,44.6-19.2,89.3-28.7,133.9c-2.2,10.1-4.3,20.4-6.6,30.6
			c-2.5,11.9,15.7,17,18.4,5.1c6-28,12-56.1,18-84.1c9.5-44.6,19.2-89.3,28.7-133.9c2.2-10.1,4.3-20.4,6.6-30.6
			C293.8,109.2,275.5,104.1,273,116L273,116z"/>
	</g>
</g>
<g>
	<g>
		<path class="st0" d="M136.2,663.3c43.3-1.3,86.6-2.2,129.9-3c112.1-2.2,224.2-3.4,336.5-4.1c153.5-0.8,306.8-0.1,460.3,2.3
			c42.2,0.6,84.6,1.5,126.8,2.4c21.4,0.5,42.7,1,64.2,1.5c21.1,0.5,41.7,2.3,62.7,4.6c58.5,6.5,117.1,14,174.8,25.2
			c27.8,5.5,55.8,11.4,82.6,20.9c1.9,0.6,3.7,1.4,5.6,2c1.1,0.4,6.1,2.5,2.8,1.1c2.3,1,4.7,2,7,3.2c1.5,0.8,2.9,1.5,4.3,2.4
			c1.1,0.6,3.7,2.8,0.3,0c0.3,0.1,0.4,0.3,0.6,0.5c8.5,8.8,21.9-4.7,13.4-13.4c-4.1-4.2-10.4-6.7-15.6-9
			c-20.9-9-43.3-14.7-65.3-19.8c-49-11.2-98.7-18.5-148.5-25c-38.3-4.9-77.1-10.7-115.8-11.7c-42.6-1.1-85.4-2.2-128-3
			c-158.9-3.2-317.8-4.2-476.8-3.8c-119.7,0.4-239.5,1.5-359.2,3.7c-53.4,0.9-106.9,1-160.3,3.6c-0.8,0-1.5,0-2.3,0.1
			C124.1,644.7,123.9,663.7,136.2,663.3L136.2,663.3z"/>
	</g>
</g>
<circle class="st1" cx="429.9" cy="928.8" r="133"/>
<circle class="st1" cx="1508.6" cy="923.7" r="133"/>
<rect x="411.5" y="684.1" transform="matrix(0.1341 -0.991 0.991 0.1341 -382.4314 1098.7823)" class="st2" width="52" height="168.3"/>
</svg>
