<?xml version="1.0" encoding="utf-8"?>
<!-- Generator: Adobe Illustrator 21.0.2, SVG Export Plug-In . SVG Version: 6.00 Build 0)  -->
<svg version="1.1" id="Слой_1" xmlns="http://www.w3.org/2000/svg" xmlns:xlink="http://www.w3.org/1999/xlink" x="0px" y="0px"
	 viewBox="0 0 1200 1000" style="enable-background:new 0 0 1200 1000;" xml:space="preserve">
<style type="text/css">
	.st0{fill:#0375BB;}
	.st1{stroke:#0375BB;stroke-width:10;stroke-miterlimit:10;}
</style>
<g>
	<g>
		<path class="st0" d="M514.5,582.8c0-9.1,0-18.1,0-27.2c0-21.7,0-43.5,0-65.3c0-26.2,0-52.4,0-78.6c0-22.6,0-45.3,0-68
			c0-7.5,0-15,0-22.5c0-3.5,0.3-7.2,0-10.7c0-0.2,0-0.3,0-0.5c-2,2-4,4-6,6c6.9,0,13.8,0,20.6,0c17.9,0,35.7,0,53.5,0
			c24.7,0,49.4,0,74.1,0c27.3,0,54.7,0,82.1,0c25.8,0,51.6,0,77.4,0c20.3,0,40.7,0,61,0c10.4,0,20.9,0,31.3,0c8.5,0,17,0,25.5,0
			c25.6,0,51.2,0,76.8,0c19.7,0,39.5,0,59.2,0c1,0,2.1,0,3.1,0c-1.4-0.6-2.8-1.2-4.3-1.8c0.7,0.7,1.4,1.5,2.1,2.3
			c0.8,0.9,1.5,1.8,2.2,2.8c0.2,0.3,0.4,0.6,0.7,0.8c-1.5-1.9-0.4-0.6-0.1-0.1c0.5,0.8,1.1,1.5,1.7,2.3c6.5,8.9,12,18.5,16.8,28.3
			c1.7,3.4,3.3,6.9,4.9,10.5c0.4,0.9,0.8,1.8,1.2,2.7c0.1,0.2,0.7,1.8,0.2,0.4c0.2,0.5,0.4,1,0.6,1.4c0.8,2.1,1.7,4.2,2.5,6.4
			c3.5,9,6.5,18.2,9.1,27.5c6.6,23.4,10.8,47.3,13,71.5c3.4,37.2,2.4,74.7-1.4,111.8c2-2,4-4,6-6c-50.8,0.5-101.6,0.8-152.4,0.9
			c-53.8,0.2-107.6,0.2-161.5,0.1c-49.1-0.1-98.2-0.2-147.2-0.3c-36.5-0.1-73.1-0.3-109.6-0.5c-16.2-0.1-32.5-0.7-48.7-0.2
			c-0.2,0-0.4,0-0.7,0c-7.8-0.1-7.8,12,0,12.1c13.2,0.1,26.4,0.2,39.7,0.2c34.5,0.2,68.9,0.3,103.5,0.4c48,0.2,95.9,0.3,143.9,0.4
			c53.7,0.1,107.3,0.1,161-0.1c51.6-0.1,103.2-0.4,154.7-0.8c5.8-0.1,11.6-0.1,17.3-0.2c3.5-0.1,5.7-2.8,6-6
			c5.8-56.2,5.1-113.7-7.5-169c-7.1-30.7-17.9-61.1-34.6-88c-3.9-6.2-8-12.1-12.7-17.7c-0.7-0.8-1.4-1.7-2.2-2.4
			c-2.4-2.2-5.4-1.8-8.3-1.8c-30.7,0-61.5,0-92.2,0c-22.3,0-44.5,0-66.8,0c-13.8,0-27.6,0-41.4,0c-31.1,0-62.2,0-93.3,0
			c-37.3,0-74.6,0-111.9,0c-33.1,0-66.2,0-99.3,0c-17.8,0-35.6,0-53.4,0c-0.8,0-1.7,0-2.5,0c-3.3,0-6,2.8-6,6c0,9.1,0,18.1,0,27.2
			c0,21.7,0,43.5,0,65.3c0,26.2,0,52.4,0,78.6c0,22.6,0,45.3,0,68c0,11-0.4,22.2,0,33.3c0,0.2,0,0.3,0,0.5
			C502.4,590.6,514.5,590.6,514.5,582.8z"/>
	</g>
</g>
<g>
	<g>
		<path class="st0" d="M347.3,310c1,9.1,2.1,18.2,3.1,27.3c2.5,21.9,5,43.8,7.5,65.7c3,26.5,6,53,9.1,79.6
			c2.6,22.9,5.3,45.8,7.8,68.8c1.3,11.1,2.5,22.3,3.8,33.4c0,0.2,0.1,0.3,0.1,0.5c0.8,7.6,11.6,7.9,12.1,0
			c0.5-9.1,1.1-18.3,1.7-27.4c1.3-21.9,2.7-43.9,4-65.8c1.6-26.5,3.3-53.1,4.9-79.6c1.4-22.8,2.8-45.7,4.2-68.5
			c0.5-7.5,0.9-15.2,1.4-22.7c0.2-3.6,0.7-7.2,0.7-10.7c0-0.2,0-0.3,0-0.5c-4,0-8,0-12.1,0c0.6,9.1,1.2,18.3,1.8,27.4
			c1.4,21.9,2.9,43.9,4.3,65.8c1.8,26.5,3.5,53.1,5.3,79.6c1.5,22.8,3,45.7,4.5,68.5c0.7,11.2,1.3,22.3,2.2,33.4
			c0,0.2,0,0.3,0.1,0.5c0.5,7.8,11.6,7.8,12.1,0c0.6-9.1,1.2-18.3,1.8-27.4c1.4-21.9,2.9-43.9,4.3-65.8c1.8-26.5,3.5-53.1,5.3-79.6
			c1.5-22.8,3-45.7,4.5-68.5c0.5-7.5,1-15.2,1.5-22.7c0.2-3.6,0.8-7.2,0.7-10.7c0-0.2,0-0.3,0.1-0.5c-4,0-8,0-12.1,0
			c0.5,9.1,1.1,18.3,1.7,27.4c1.3,21.9,2.7,43.9,4,65.8c1.6,26.5,3.3,53.1,4.9,79.6c1.4,22.8,2.8,45.7,4.2,68.5
			c0.7,11.2,1.1,22.3,2.1,33.4c0,0.2,0,0.3,0,0.5c0.5,7.8,11.5,7.7,12.1,0c0.7-9.1,1.4-18.2,2.2-27.3c1.8-21.9,3.4-43.8,5.2-65.7
			c2.1-26.5,4.2-53,6.3-79.4c1.8-23,3.6-46,5.4-69c0.6-7.5,1.2-15.1,1.8-22.6c0.3-3.6,0.8-7.2,0.8-10.7c0-0.2,0-0.3,0.1-0.5
			c-4,0-8,0-12.1,0c0.4,8.9,0.9,17.9,1.3,26.7c1.1,21.6,2.1,43,3.2,64.6c1.3,26,2.5,51.9,3.8,77.9c1.1,22.5,2.2,44.9,3.3,67.3
			c0.5,10.9,0.8,21.9,1.6,32.8c0,0.1,0,0.3,0,0.4c0.4,7.8,11.5,7.7,12.1,0c0.6-8.9,1.3-17.9,1.9-26.9c1.5-21.5,3-43,4.5-64.5
			c1.8-25.9,3.6-51.9,5.4-77.7c1.6-22.5,3.1-45,4.7-67.5c0.7-10.9,2.1-21.9,2.3-32.8c0-0.1,0-0.3,0.1-0.4c0.2-3.3-3-6-6-6
			c-10.7,0-21.3,0-32,0c-22.2,0-44.4,0-66.6,0c-19,0-38,0-57,0c-5.1,0-10.2,0-15.3,0c-11,0-22,0-33.1,0c-19,0-38,0-57,0
			c-22.9,0-45.8,0-68.7,0c-22.5,0-45,0-67.5,0c-17.9,0-35.7,0-53.5,0c-9.1,0-18.2,0-27.4,0c-0.4,0-0.8,0-1.2,0c-3.3,0-6,2.8-6,6
			c0,9.1,0,18.1,0,27.2c0,21.7,0,43.5,0,65.3c0,26.2,0,52.4,0,78.7c0,22.8,0,45.5,0,68.2c0,11-0.4,22.1,0,33.1c0,0.2,0,0.3,0,0.5
			c0,3.3,2.8,6,6,6c10.7,0,21.5,0,32.2,0c25.8,0,51.6,0,77.3,0c31,0,61.9,0,92.9,0c26.9,0,53.8,0,80.8,0c13,0,26.2,0.4,39.2,0
			c0.2,0,0.4,0,0.5,0c7.8,0,7.8-12.1,0-12.1c-10.7,0-21.5,0-32.2,0c-25.8,0-51.6,0-77.3,0c-31,0-61.9,0-92.9,0
			c-26.9,0-53.8,0-80.8,0c-8.8,0-17.7,0-26.5,0c-4.2,0-8.5-0.3-12.7,0c-0.2,0-0.4,0-0.5,0c2,2,4,4,6,6c0-9.1,0-18.1,0-27.2
			c0-21.7,0-43.5,0-65.3c0-26.2,0-52.4,0-78.7c0-22.8,0-45.5,0-68.2c0-7.5,0-14.9,0-22.4c0-3.5,0.3-7.2,0-10.7c0-0.2,0-0.3,0-0.5
			c-2,2-4,4-6,6c6.3,0,12.7,0,19,0c16.2,0,32.4,0,48.5,0c21.7,0,43.4,0,65.1,0c23.2,0,46.4,0,69.6,0c20.4,0,40.7,0,61.1,0
			c13.3,0,26.6,0,40,0c4.3,0,8.6,0,12.9,0c16.1,0,32.2,0,48.3,0c22.7,0,45.4,0,68.1,0c14.8,0,29.7,0,44.5,0c0.7,0,1.5,0,2.2,0
			c-2-2-4-4-6-6c-0.6,8.9-1.3,17.9-1.9,26.9c-1.5,21.5-3,43-4.5,64.5c-1.8,25.9-3.6,51.9-5.4,77.7c-1.6,22.5-3.1,45-4.7,67.5
			c-0.5,7.4-1,14.8-1.5,22.2c-0.2,3.5-0.8,7.1-0.7,10.6c0,0.1,0,0.3-0.1,0.4c4,0,8,0,12.1,0c-0.4-8.9-0.9-17.9-1.3-26.7
			c-1.1-21.6-2.1-43-3.2-64.6c-1.3-26-2.5-51.9-3.8-77.9c-1.1-22.5-2.2-44.9-3.3-67.3c-0.5-10.9-0.8-21.9-1.6-32.8
			c0-0.1,0-0.3,0-0.4c-0.4-7.8-11.5-7.7-12.1,0c-0.7,9.1-1.4,18.2-2.2,27.3c-1.8,21.9-3.4,43.8-5.2,65.7c-2.1,26.5-4.2,53-6.3,79.4
			c-1.8,23-3.6,46-5.4,69c-0.6,7.5-1.2,15.1-1.8,22.6c-0.3,3.6-0.8,7.2-0.8,10.7c0,0.2,0,0.3-0.1,0.5c4,0,8,0,12.1,0
			c-0.5-9.1-1.1-18.3-1.7-27.4c-1.3-21.9-2.7-43.9-4-65.8c-1.6-26.5-3.3-53.1-4.9-79.6c-1.4-22.8-2.8-45.7-4.2-68.5
			c-0.7-11.2-1.1-22.3-2.1-33.4c0-0.2,0-0.3,0-0.5c-0.5-7.8-11.6-7.8-12.1,0c-0.6,9.1-1.2,18.3-1.8,27.4
			c-1.4,21.9-2.9,43.9-4.3,65.8c-1.8,26.5-3.5,53.1-5.3,79.6c-1.5,22.8-3,45.7-4.5,68.5c-0.5,7.5-1,15.2-1.5,22.7
			c-0.2,3.6-0.8,7.2-0.7,10.7c0,0.2,0,0.3-0.1,0.5c4,0,8,0,12.1,0c-0.6-9.1-1.2-18.3-1.8-27.4c-1.4-21.9-2.9-43.9-4.3-65.8
			c-1.8-26.5-3.5-53.1-5.3-79.6c-1.5-22.8-3-45.7-4.5-68.5c-0.7-11.2-1.3-22.3-2.2-33.4c0-0.2,0-0.3-0.1-0.5
			c-0.5-7.7-11.6-7.8-12.1,0c-0.5,9.1-1.1,18.3-1.7,27.4c-1.3,21.9-2.7,43.9-4,65.8c-1.6,26.5-3.3,53.1-4.9,79.6
			c-1.4,22.8-2.8,45.7-4.2,68.5c-0.5,7.5-0.9,15.2-1.4,22.7c-0.2,3.6-0.7,7.2-0.7,10.7c0,0.2,0,0.3,0,0.5c4,0,8,0,12.1,0
			c-1-9.1-2.1-18.2-3.1-27.3c-2.5-21.9-5-43.8-7.5-65.7c-3-26.5-6-53-9.1-79.6c-2.6-22.9-5.3-45.8-7.8-68.8
			c-1.3-11.1-2.5-22.3-3.8-33.4c0-0.2-0.1-0.3-0.1-0.5c-0.4-3.3-2.5-6-6-6C350.3,303.9,346.9,306.7,347.3,310L347.3,310z"/>
	</g>
</g>
<g>
	<g>
		<path class="st0" d="M341.2,588.8c20.8,0,41.6,0.1,62.4,0.1c32.8,0,65.7,0.1,98.6,0.1c7.5,0,15,0,22.5,0c7.8,0,7.8-12.1,0-12.1
			c-20.8,0-41.6-0.1-62.4-0.1c-32.8,0-65.7-0.1-98.6-0.1c-7.5,0-15,0-22.5,0C333.4,576.8,333.4,588.8,341.2,588.8L341.2,588.8z"/>
	</g>
</g>
<g>
	<g>
		<path class="st0" d="M326.7,456.9c-9.9,0-19.7,0-29.6,0c-23.7,0-47.4,0-71.1,0c-28.7,0-57.3,0-86,0c-24.7,0-49.6,0-74.3,0
			c-8.1,0-16.3,0-24.4,0c-3.8,0-7.8-0.4-11.6,0c-0.2,0-0.4,0-0.5,0c1.5,1.5,3,3,4.5,4.5c0-13,0-26,0-39c0-20.7,0-41.4,0-62.1
			c0-4.8,0-9.5,0-14.2c-1.5,1.5-3,3-4.5,4.5c9.9,0,19.7,0,29.6,0c23.7,0,47.4,0,71.1,0c28.7,0,57.3,0,86,0c24.7,0,49.6,0,74.3,0
			c8.1,0,16.3,0,24.4,0c3.8,0,7.8,0.4,11.6,0c0.2,0,0.4,0,0.5,0c-1.5-1.5-3-3-4.5-4.5c0,13,0,26,0,39c0,20.7,0,41.4,0,62.1
			c0,4.8,0,9.5,0,14.2c0,5.9,9.1,5.9,9.1,0c0-13,0-26,0-39c0-20.7,0-41.4,0-62.1c0-4.8,0-9.5,0-14.2c0-2.5-2.1-4.5-4.5-4.5
			c-9.9,0-19.7,0-29.6,0c-23.7,0-47.4,0-71.1,0c-28.7,0-57.3,0-86,0c-24.7,0-49.6,0-74.3,0c-12,0-24-0.5-36,0c-0.2,0-0.4,0-0.5,0
			c-2.5,0-4.5,2.1-4.5,4.5c0,13,0,26,0,39c0,20.7,0,41.4,0,62.1c0,4.8,0,9.5,0,14.2c0,2.5,2.1,4.5,4.5,4.5c9.9,0,19.7,0,29.6,0
			c23.7,0,47.4,0,71.1,0c28.7,0,57.3,0,86,0c24.7,0,49.6,0,74.3,0c12,0,24,0.5,36,0c0.2,0,0.4,0,0.5,0
			C332.6,466,332.6,456.9,326.7,456.9z"/>
	</g>
</g>
<g>
	<g>
		<path class="st0" d="M935.5,461.1c0-12.9,0-25.8,0-38.8c0-20.6,0-41.2,0-61.8c0-4.8,0-9.5,0-14.2c-1.5,1.5-3,3-4.5,4.5
			c17.9,0,35.7,0,53.6,0c15.2,0,30.2,0,45.4,0c10.7,0,21.5,0,32.2,0c-1.3-0.7-2.6-1.5-3.9-2.2c0.2,0.3,0.4,0.6,0.5,1
			s0.3,0.7,0.5,1.1s0.5,1.4-0.1-0.2c0.1,0.4,0.3,0.7,0.4,1.1c1.5,3.9,2.8,7.8,3.9,11.8c4.5,16.5,6.5,33.6,7.4,50.6
			c0.8,15.7,0.5,31.5-0.3,47.1c1.5-1.5,3-3,4.5-4.5c-44.1,0.8-88.3,0.5-132.5,0.1c-3.9-0.1-7.7-0.1-11.6-0.1c-5.9-0.1-5.9,9,0,9.1
			c34.6,0.4,69.2,0.5,103.8,0.4c13.4-0.1,26.9-0.2,40.3-0.4c2.5-0.1,4.4-2.1,4.5-4.5c1.4-25.3,1.1-50.8-2.4-75.9
			c-1.7-11.9-4.1-24-8.5-35.3c-0.8-2-1.6-4-2.6-5.9c-0.7-1.4-2.4-2.2-3.9-2.2c-14.3,0-28.6,0-42.9,0c-22.3,0-44.7,0-67.1,0
			c-7.1,0-14.2,0-21.2,0c-2.5,0-4.5,2.1-4.5,4.5c0,12.9,0,25.8,0,38.8c0,20.6,0,41.2,0,61.8c0,4.8,0,9.5,0,14.2
			C926.5,466.8,935.5,466.8,935.5,461.1z"/>
	</g>
</g>
<g>
	<g>
		<path class="st0" d="M904.4,456.9c-12.4,0-24.7,0-37.1,0c-29.6,0-59.3,0-88.9,0c-35.7,0-71.5,0-107.1,0c-30.8,0-61.7,0-92.6,0
			c-10.1,0-20.3,0-30.5,0c-4.8,0-9.7-0.4-14.4,0c-0.2,0-0.4,0-0.6,0c1.5,1.5,3,3,4.5,4.5c0-13,0-26,0-39c0-20.7,0-41.4,0-62.1
			c0-4.8,0-9.5,0-14.2c-1.5,1.5-3,3-4.5,4.5c12.4,0,24.7,0,37.1,0c29.6,0,59.3,0,88.9,0c35.7,0,71.5,0,107.1,0c30.8,0,61.7,0,92.6,0
			c10.1,0,20.3,0,30.5,0c4.8,0,9.7,0.4,14.4,0c0.2,0,0.4,0,0.6,0c-1.5-1.5-3-3-4.5-4.5c0,13,0,26,0,39c0,20.7,0,41.4,0,62.1
			c0,4.8,0,9.5,0,14.2c0,5.9,9.1,5.9,9.1,0c0-13,0-26,0-39c0-20.7,0-41.4,0-62.1c0-4.8,0-9.5,0-14.2c0-2.5-2.1-4.5-4.5-4.5
			c-12.4,0-24.7,0-37.1,0c-29.6,0-59.3,0-88.9,0c-35.7,0-71.5,0-107.1,0c-30.8,0-61.7,0-92.6,0c-15,0-30-0.5-44.9,0
			c-0.2,0-0.4,0-0.6,0c-2.5,0-4.5,2.1-4.5,4.5c0,13,0,26,0,39c0,20.7,0,41.4,0,62.1c0,4.8,0,9.5,0,14.2c0,2.5,2.1,4.5,4.5,4.5
			c12.4,0,24.7,0,37.1,0c29.6,0,59.3,0,88.9,0c35.7,0,71.5,0,107.1,0c30.8,0,61.7,0,92.6,0c15,0,30,0.5,44.9,0c0.2,0,0.4,0,0.6,0
			C910.3,466,910.3,456.9,904.4,456.9z"/>
	</g>
</g>
<g>
	<g>
		<path class="st0" d="M636.1,461.5c0-13,0-26,0-39c0-20.7,0-41.4,0-62.1c0-4.8,0-9.5,0-14.2c0-5.9-9.1-5.9-9.1,0c0,13,0,26,0,39
			c0,20.7,0,41.4,0,62.1c0,4.8,0,9.5,0,14.2C627,467.3,636.1,467.3,636.1,461.5L636.1,461.5z"/>
	</g>
</g>
<g>
	<g>
		<path class="st0" d="M734.5,461.5c0-12.9,0-25.8,0-38.6c0-20.4,0-40.9,0-61.3c0-4.7,0-9.4,0-14.1c0-5.9-9.1-5.9-9.1,0
			c0,12.9,0,25.8,0,38.6c0,20.4,0,40.9,0,61.3c0,4.7,0,9.4,0,14.1C725.4,467.3,734.5,467.3,734.5,461.5L734.5,461.5z"/>
	</g>
</g>
<g>
	<g>
		<path class="st0" d="M823.2,461.5c0-12.9,0-25.8,0-38.6c0-20.4,0-40.9,0-61.3c0-4.7,0-9.4,0-14.1c0-5.9-9.1-5.9-9.1,0
			c0,12.9,0,25.8,0,38.6c0,20.4,0,40.9,0,61.3c0,4.7,0,9.4,0,14.1C814.2,467.3,823.2,467.3,823.2,461.5L823.2,461.5z"/>
	</g>
</g>
<g>
	<g>
		<path class="st0" d="M244.9,460.9c0-12.8,0-25.5,0-38.3c0-20.3,0-40.7,0-61.1c0-4.7,0-9.4,0-14.1c0-5.9-9.1-5.9-9.1,0
			c0,12.8,0,25.5,0,38.3c0,20.3,0,40.7,0,61.1c0,4.7,0,9.4,0,14.1C235.9,466.7,244.9,466.7,244.9,460.9L244.9,460.9z"/>
	</g>
</g>
<g>
	<g>
		<path class="st0" d="M145.9,460.9c0-12.8,0-25.5,0-38.3c0-20.3,0-40.7,0-61.1c0-4.7,0-9.4,0-14.1c0-5.9-9.1-5.9-9.1,0
			c0,12.8,0,25.5,0,38.3c0,20.3,0,40.7,0,61.1c0,4.7,0,9.4,0,14.1C136.9,466.7,145.9,466.7,145.9,460.9L145.9,460.9z"/>
	</g>
</g>
<g>
	<g>
		<path class="st0" d="M342.2,310c0,9.1,0,18.1,0,27.2c0,21.7,0,43.5,0,65.3c0,26.2,0,52.4,0,78.7c0,22.8,0,45.5,0,68.2
			c0,11-0.4,22.1,0,33.1c0,0.2,0,0.3,0,0.5c0,7.8,12.1,7.8,12.1,0c0-9.1,0-18.1,0-27.2c0-21.7,0-43.5,0-65.3c0-26.2,0-52.4,0-78.7
			c0-22.8,0-45.5,0-68.2c0-11,0.4-22.1,0-33.1c0-0.2,0-0.3,0-0.5C354.3,302.2,342.2,302.2,342.2,310L342.2,310z"/>
	</g>
</g>
<g>
	<g>
		<path class="st0" d="M678.4,486.5c0,9.5,0,18.9,0,28.4c0,1.6,1.4,3,3,3c15.5,0,30.8,0,46.3,0c24.6,0,49.2,0,73.8,0
			c5.7,0,11.3,0,17,0c1.6,0,3-1.4,3-3c0-9.5,0-18.9,0-28.4c0-1.6-1.4-3-3-3c-15.5,0-30.8,0-46.3,0c-24.6,0-49.2,0-73.8,0
			c-5.7,0-11.3,0-17,0c-3.9,0-3.9,6,0,6c15.5,0,30.8,0,46.3,0c24.6,0,49.2,0,73.8,0c5.7,0,11.3,0,17,0c-1-1-2-2-3-3
			c0,9.5,0,18.9,0,28.4c1-1,2-2,3-3c-15.5,0-30.8,0-46.3,0c-24.6,0-49.2,0-73.8,0c-5.7,0-11.3,0-17,0c1,1,2,2,3,3
			c0-9.5,0-18.9,0-28.4C684.4,482.7,678.4,482.7,678.4,486.5z"/>
	</g>
</g>
<rect x="353.9" y="588.8" width="123.1" height="36.2"/>
<circle class="st1" cx="1006.7" cy="590.8" r="54.9"/>
<circle class="st1" cx="601.1" cy="593.1" r="54.9"/>
<circle class="st1" cx="212.3" cy="593.1" r="54.9"/>
</svg>
