<?xml version="1.0" encoding="utf-8"?>
<!-- Generator: Adobe Illustrator 21.0.2, SVG Export Plug-In . SVG Version: 6.00 Build 0)  -->
<svg version="1.1" id="Слой_1" xmlns="http://www.w3.org/2000/svg" xmlns:xlink="http://www.w3.org/1999/xlink" x="0px" y="0px"
	 viewBox="0 0 1000 1000" style="enable-background:new 0 0 1000 1000;" xml:space="preserve">
<style type="text/css">
	.st0{fill:#0375BB;}
</style>
<g>
	<g>
		<path class="st0" d="M395.1,551.7c-0.2,0-0.4,0-0.6,0.1c0.8,3.1,1.7,6.2,2.5,9.3c0.2-0.1,0.3-0.2,0.5-0.3c1.1-0.6,2-1.8,2.3-3
			s0.2-2.8-0.5-3.9c-0.7-1.1-1.7-2-3-2.3c-1.4-0.3-2.6-0.1-3.9,0.5c-0.2,0.1-0.3,0.2-0.5,0.3c-0.3,0.3-0.7,0.5-1,0.8
			c-0.5,0.5-0.8,1-1,1.6c-0.4,1-0.6,2.2-0.3,3.3c0.3,0.8,0.7,1.6,1.3,2.2c0.8,0.9,2.4,1.6,3.5,1.5c0.2,0,0.4,0,0.6-0.1
			c0.7,0,1.3-0.1,1.9-0.4c0.6-0.2,1.2-0.5,1.6-1c0.9-0.9,1.5-2.3,1.5-3.5c-0.1-1.3-0.5-2.6-1.5-3.5
			C397.7,552.3,396.4,551.5,395.1,551.7L395.1,551.7z"/>
	</g>
</g>
<g>
	<g>
		<path class="st0" d="M478.3,590.9c1.7,0,4,0.3,5.4-0.7c2-1.4,2.6-3.3,2.3-5.6c-0.5-3.6-4.2-3.7-6.9-3.8c-0.6,0-1.2-0.1-1.8-0.1
			c-1.9,0,1.7,0.5,2.5,1.4c0.5,1.2,1,2.4,1.5,3.5l0,0c-0.5,1.2-1,2.4-1.5,3.5c-0.8,1-3.7,1.3-2.9,1.4c0.5,0.1,1.1,0,1.7,0
			c2.5-0.1,4.9-0.1,7.4-0.1c12.5-0.1,24.9,0,37.4,0c26.7,0.1,53.3,0.2,80,0.3c31.3,0.2,62.8,1,93.7-4.5
			c26.1-4.7,66.5-16.6,69.7-48.7c2.5-25.4-22.3-43.9-43.2-52.3c-33.8-13.5-72.5-9.2-105.3,5c-5,2.1-9.8,4.5-14.6,7.1
			c-4.2,2.3-2.5,9.8,2.5,9.3c20.9-1.8,44.8-8.9,54.3-29.5c7.7-16.6,4-35.8-4.4-51.5c-8.8-16.5-23.3-30.7-40.8-37.7
			c-18.5-7.4-38.3-3.8-53.6,8.8c-11.4,9.4-19.5,22.7-25.4,36.1c-9.4,21.4-14.6,44.4-18,67.5c2.1-1.2,4.1-2.3,6.2-3.5
			c-29.1-9.9-61.1-18.5-92.2-15.4c-17.4,1.7-35.5,7.6-45.9,22.5c-18.8,27,2.6,61.1,26.8,75.7c19.9,12,43.7,14.7,66.4,11
			c6.3-1,3.6-10.7-2.7-9.6c-31.9,5.2-68.8-6.1-83.3-36.6c-4.8-10.1-5.8-22.5-0.6-32.1c6.7-12.4,21.1-18.3,35.4-20.5
			c31.2-4.7,64.2,4.6,93.5,14.5c2.3,0.8,5.8-0.9,6.2-3.5c2.9-19.6,7-39.2,14.1-57.9c4.7-12.3,10.8-24.6,19.6-34.4
			c11.9-13.2,27.8-19.5,44.2-15.3c15.3,4,28.7,15.3,37.4,28.4c8.6,12.9,14,29,10.2,43.3c-2,7.7-6.7,14.3-13.4,18.9
			c-9.9,6.9-22.1,9.6-34,10.6c0.8,3.1,1.7,6.2,2.5,9.3c34.7-18.8,79.1-26.7,116.1-9.4c12,5.7,23.2,13.9,29.1,25.5
			c4.7,9.2,3.8,19.7-2.6,28.1c-10.5,13.8-29.4,20.1-45.6,23.9c-32.9,7.9-67,6.7-100.6,6.6c-41.2-0.2-82.4-0.7-123.6-0.3
			c-1.6,0-3.2-0.1-4.8,0.1c-5.4,0.6-7.9,8.1-1.6,9.9c1.4,0.4,4.1,0.6,5.6,0.4c1.2-0.2-1.6-0.4-2-0.6c-0.8-1-1.5-2-2.3-3l0,0
			c0.8-1.9,1.5-3.8,2.3-5.6c0.7-0.5,3.5-0.5,1.8-0.7c-0.7-0.1-1.5,0-2.2,0C471.8,580.9,471.8,590.9,478.3,590.9z"/>
	</g>
</g>
</svg>
